<svg  viewBox="0 0 396 57" fill="none" xmlns="http://www.w3.org/2000/svg">
<path d="M60.536 15.4336L49.7889 56H38.0201L30.6788 27.3159H30.4518L23.1483 56H11.5309L0.745941 15.4336H11.8714L18.0018 45.5178H18.2289L25.4188 15.4336H36.0145L43.2423 45.5178H43.4693L49.6375 15.4336H60.536ZM78.711 48.6587C83.5169 48.6587 87.4903 45.5178 87.4903 41.1282V38.1765L78.938 38.7063C74.8133 39.009 72.4671 40.8633 72.4671 43.7393C72.4671 46.7666 74.9646 48.6587 78.711 48.6587ZM75.0782 56.6433C67.3584 56.6433 61.493 51.6482 61.493 44.3447C61.493 36.9656 67.1692 32.6895 77.273 32.084L87.4903 31.4785V28.7917C87.4903 25.0076 84.8414 22.8127 80.6788 22.8127C76.554 22.8127 73.9429 24.8562 73.4131 27.8457H63.3094C63.7256 19.9746 70.4236 14.5632 81.1707 14.5632C91.5772 14.5632 98.3509 19.9368 98.3509 28.1106V56H87.6795V49.7939H87.4524C85.1819 54.1079 80.149 56.6433 75.0782 56.6433ZM107.255 6.08667H118.304V15.4336H125.797V23.7588H118.304V43.1716C118.304 46.2747 119.818 47.7505 123.073 47.7505C124.056 47.7505 125.078 47.6748 125.759 47.5613V55.6973C124.624 55.9622 122.732 56.1514 120.499 56.1514C110.963 56.1514 107.255 52.9727 107.255 45.0637V23.7588H101.541V15.4336H107.255V6.08667ZM166.904 30.5325H156.649C156.006 26.2563 153.168 23.229 148.627 23.229C143.177 23.229 139.772 27.8457 139.772 35.679C139.772 43.6636 143.177 48.2046 148.664 48.2046C153.092 48.2046 155.968 45.5557 156.649 41.1282H166.942C166.374 50.7021 159.222 56.8704 148.551 56.8704C136.328 56.8704 128.571 48.9236 128.571 35.679C128.571 22.6614 136.328 14.5632 148.475 14.5632C159.449 14.5632 166.412 21.3369 166.904 30.5325ZM171.343 56V1.39429H182.203V22.6614H182.43C184.587 17.5527 189.015 14.6768 195.183 14.6768C204.189 14.6768 209.336 20.5044 209.336 29.8892V56H198.286V32.2354C198.286 27.0132 195.713 23.8345 190.68 23.8345C185.458 23.8345 182.392 27.5051 182.392 32.8408V56H171.343ZM240.793 0.448242C256.952 0.448242 267.131 11.3088 267.131 28.7161C267.131 46.0854 256.952 56.946 240.793 56.946C224.597 56.946 214.455 46.0854 214.455 28.7161C214.455 11.3088 224.597 0.448242 240.793 0.448242ZM240.793 9.98438C231.863 9.98438 226.111 17.25 226.111 28.7161C226.111 40.1443 231.825 47.3721 240.793 47.3721C249.724 47.3721 255.438 40.1443 255.438 28.7161C255.438 17.25 249.724 9.98438 240.793 9.98438ZM271.267 40.447H282.279C282.809 44.9502 287.501 47.9019 293.556 47.9019C299.648 47.9019 303.811 44.988 303.811 40.9768C303.811 37.4197 301.2 35.4519 294.615 33.9761L287.501 32.4246C277.435 30.2676 272.478 25.1589 272.478 17.1743C272.478 7.1084 281.181 0.448242 293.366 0.448242C306.081 0.448242 314.066 6.99487 314.255 16.8716H303.546C303.168 12.2549 299.118 9.45459 293.404 9.45459C287.766 9.45459 283.982 12.1414 283.982 16.1904C283.982 19.5583 286.631 21.4504 292.912 22.8884L299.535 24.2886C310.471 26.6348 315.239 31.3271 315.239 39.6523C315.239 50.248 306.649 56.946 293.102 56.946C279.97 56.946 271.607 50.7021 271.267 40.447ZM348.221 56V11.8765H347.994L334.068 21.4883V11.1953L348.183 1.39429H359.536V56H348.221ZM384.257 56V11.8765H384.03L370.105 21.4883V11.1953L384.22 1.39429H395.572V56H384.257Z" fill="url(#paint0_linear_1_10443)"/>
<defs>
<linearGradient id="paint0_linear_1_10443" x1="10.7658" y1="-41.5605" x2="393.179" y2="97.7127" gradientUnits="userSpaceOnUse">
<stop stop-color="#1AB7A1"/>
<stop offset="0.51" stop-color="#3D2DA9"/>
<stop offset="1" stop-color="#A53A9F"/>
</linearGradient>
</defs>
</svg>
