<svg viewBox="0 0 543 71" fill="none" xmlns="http://www.w3.org/2000/svg">
<path d="M-0.00502014 57V16.3518H10.6879V23.7079H10.9154C12.6217 18.8165 16.9823 15.5934 22.5183 15.5934C28.3956 15.5934 32.4908 18.6269 33.8558 23.9354H34.0833C35.9034 18.8165 40.7569 15.5934 46.7101 15.5934C54.6729 15.5934 60.0193 21.0536 60.0193 29.244V57H48.9472V32.012C48.9472 27.3101 46.5963 24.7317 42.3116 24.7317C38.1027 24.7317 35.3346 27.8031 35.3346 32.3153V57H24.6797V31.6707C24.6797 27.3101 22.215 24.7317 18.1198 24.7317C13.9109 24.7317 11.0671 27.9168 11.0671 32.467V57H-0.00502014ZM81.5323 49.6439C86.3479 49.6439 90.3293 46.4967 90.3293 42.0982V39.1406L81.7598 39.6714C77.6267 39.9748 75.2758 41.8328 75.2758 44.7145C75.2758 47.748 77.7784 49.6439 81.5323 49.6439ZM77.8921 57.6446C70.1568 57.6446 64.2795 52.6394 64.2795 45.3212C64.2795 37.9272 69.9672 33.6425 80.0914 33.0358L90.3293 32.4291V29.7369C90.3293 25.9451 87.675 23.7458 83.504 23.7458C79.3709 23.7458 76.7546 25.7934 76.2237 28.7889H66.0996C66.5167 20.902 73.2282 15.4797 83.9969 15.4797C94.4244 15.4797 101.212 20.8641 101.212 29.0544V57H90.5188V50.7814H90.2913C88.0163 55.1041 82.9731 57.6446 77.8921 57.6446ZM144.11 31.4811H133.835C133.19 27.1964 130.346 24.1629 125.796 24.1629C120.336 24.1629 116.923 28.7889 116.923 36.638C116.923 44.6387 120.336 49.1889 125.834 49.1889C130.27 49.1889 133.152 46.5346 133.835 42.0982H144.148C143.58 51.6915 136.413 57.8721 125.72 57.8721C113.473 57.8721 105.699 49.9093 105.699 36.638C105.699 23.5942 113.473 15.4797 125.644 15.4797C136.641 15.4797 143.618 22.267 144.11 31.4811ZM173.927 1.33624C190.118 1.33624 200.318 12.2187 200.318 29.6611C200.318 47.0655 190.118 57.948 173.927 57.948C157.699 57.948 147.536 47.0655 147.536 29.6611C147.536 12.2187 157.699 1.33624 173.927 1.33624ZM173.927 10.8916C164.979 10.8916 159.215 18.1719 159.215 29.6611C159.215 41.1123 164.941 48.3547 173.927 48.3547C182.876 48.3547 188.602 41.1123 188.602 29.6611C188.602 18.1719 182.876 10.8916 173.927 10.8916ZM204.465 41.4157H215.499C216.03 45.9279 220.732 48.8855 226.799 48.8855C232.903 48.8855 237.074 45.9658 237.074 41.9465C237.074 38.3822 234.458 36.4105 227.86 34.9317L220.732 33.377C210.646 31.2157 205.678 26.0968 205.678 18.096C205.678 8.00983 214.399 1.33624 226.609 1.33624C239.35 1.33624 247.35 7.89607 247.54 17.7927H236.809C236.43 13.1667 232.373 10.3607 226.647 10.3607C220.997 10.3607 217.205 13.0529 217.205 17.1102C217.205 20.4849 219.86 22.3808 226.154 23.8217L232.79 25.2246C243.748 27.5756 248.526 32.2774 248.526 40.6194C248.526 51.2365 239.918 57.948 226.344 57.948C213.186 57.948 204.806 51.6915 204.465 41.4157ZM266.526 41.4157H277.56C278.091 45.9279 282.793 48.8855 288.859 48.8855C294.964 48.8855 299.135 45.9658 299.135 41.9465C299.135 38.3822 296.519 36.4105 289.921 34.9317L282.793 33.377C272.706 31.2157 267.739 26.0968 267.739 18.096C267.739 8.00983 276.46 1.33624 288.67 1.33624C301.41 1.33624 309.411 7.89607 309.601 17.7927H298.87C298.491 13.1667 294.433 10.3607 288.708 10.3607C283.058 10.3607 279.266 13.0529 279.266 17.1102C279.266 20.4849 281.92 22.3808 288.215 23.8217L294.85 25.2246C305.809 27.5756 310.586 32.2774 310.586 40.6194C310.586 51.2365 301.979 57.948 288.404 57.948C275.247 57.948 266.867 51.6915 266.526 41.4157ZM333.73 23.67C328.876 23.67 325.388 27.3481 325.009 32.4291H342.261C342.034 27.2343 338.659 23.67 333.73 23.67ZM342.413 44.5629H352.575C351.362 52.5257 344.082 57.8721 334.033 57.8721C321.52 57.8721 314.013 49.8714 314.013 36.8655C314.013 23.8975 321.596 15.4797 333.616 15.4797C345.447 15.4797 352.916 23.4804 352.916 35.8417V39.2164H324.895V39.8989C324.895 45.7004 328.573 49.6818 334.223 49.6818C338.28 49.6818 341.389 47.6721 342.413 44.5629ZM372.647 15.7072C378.562 15.7072 383.075 18.8165 385.16 23.4425H385.388V16.3518H396.308V70.2713H385.236V50.061H385.009C383.113 54.5353 378.373 57.6446 372.458 57.6446C362.296 57.6446 355.963 49.606 355.963 36.6001C355.963 23.67 362.371 15.7072 372.647 15.7072ZM376.212 48.7339C381.71 48.7339 385.274 44.1078 385.274 36.6759C385.274 29.2819 381.672 24.58 376.212 24.58C370.676 24.58 367.301 29.206 367.301 36.6759C367.301 44.1458 370.676 48.7339 376.212 48.7339ZM439.889 16.3518V57H429.197V49.6818H428.969C426.959 54.8008 422.94 57.7584 416.797 57.7584C408 57.7584 402.161 52.0327 402.161 42.5532V16.3518H413.233V40.2402C413.233 45.6625 415.925 48.5443 420.817 48.5443C425.746 48.5443 428.817 45.0179 428.817 39.6335V16.3518H439.889ZM464.55 57.8721C452.264 57.8721 444.415 49.9852 444.415 36.638C444.415 23.4804 452.378 15.4797 464.55 15.4797C476.721 15.4797 484.684 23.4425 484.684 36.638C484.684 50.0231 476.835 57.8721 464.55 57.8721ZM464.55 49.4164C469.972 49.4164 473.422 44.8283 473.422 36.6759C473.422 28.5993 469.934 23.9354 464.55 23.9354C459.165 23.9354 455.639 28.5993 455.639 36.6759C455.639 44.8283 459.089 49.4164 464.55 49.4164ZM489.399 57V16.3518H500.471V57H489.399ZM494.935 11.8775C491.599 11.8775 489.02 9.33696 489.02 6.15184C489.02 2.9288 491.599 0.426208 494.935 0.426208C498.272 0.426208 500.851 2.9288 500.851 6.15184C500.851 9.33696 498.272 11.8775 494.935 11.8775ZM522.363 49.6439C527.179 49.6439 531.16 46.4967 531.16 42.0982V39.1406L522.591 39.6714C518.458 39.9748 516.107 41.8328 516.107 44.7145C516.107 47.748 518.61 49.6439 522.363 49.6439ZM518.723 57.6446C510.988 57.6446 505.111 52.6394 505.111 45.3212C505.111 37.9272 510.798 33.6425 520.923 33.0358L531.16 32.4291V29.7369C531.16 25.9451 528.506 23.7458 524.335 23.7458C520.202 23.7458 517.586 25.7934 517.055 28.7889H506.931C507.348 20.902 514.059 15.4797 524.828 15.4797C535.256 15.4797 542.043 20.8641 542.043 29.0544V57H531.35V50.7814H531.123C528.847 55.1041 523.804 57.6446 518.723 57.6446Z" fill="url(#paint0_linear_1_10426)"/>
<defs>
<linearGradient id="paint0_linear_1_10426" x1="15.315" y1="-64.0753" x2="526.702" y2="122.027" gradientUnits="userSpaceOnUse">
<stop stop-color="#021B8B"/>
<stop offset="0.33" stop-color="#1E84D9"/>
<stop offset="0.66" stop-color="#BD83A2"/>
<stop offset="1" stop-color="#EF6F33"/>
</linearGradient>
</defs>
</svg>
