<svg viewBox="0 0 365 59" fill="none" xmlns="http://www.w3.org/2000/svg">
<path d="M41.4436 16.8518L27.4897 57.5H14.9768L0.909164 16.8518H12.7775L21.2333 47.7171H21.4608L29.8786 16.8518H41.4436ZM44.3008 57.5V16.8518H55.3729V57.5H44.3008ZM49.8369 12.3775C46.5001 12.3775 43.9217 9.83696 43.9217 6.65184C43.9217 3.4288 46.5001 0.926208 49.8369 0.926208C53.1737 0.926208 55.7521 3.4288 55.7521 6.65184C55.7521 9.83696 53.1737 12.3775 49.8369 12.3775ZM60.8844 28.796C60.8844 21.0607 67.5959 15.9797 78.0234 15.9797C88.2234 15.9797 94.859 21.1366 95.0107 29.0235H84.8107C84.5832 25.7626 81.9669 23.7529 77.8717 23.7529C74.042 23.7529 71.5394 25.4971 71.5394 28.1135C71.5394 30.1231 73.2836 31.4882 76.8479 32.3224L84.6211 33.9908C92.7735 35.8109 96.0724 39.0339 96.0724 45.1008C96.0724 53.1015 88.7163 58.3721 77.9855 58.3721C67.1409 58.3721 60.4673 53.1394 59.8606 45.2145H70.6673C71.1981 48.6272 73.8903 50.5989 78.2888 50.5989C82.4977 50.5989 85.0382 48.9305 85.0382 46.2762C85.0382 44.2287 83.6732 43.0911 80.0331 42.219L72.5253 40.5506C64.8279 38.8064 60.8844 34.7871 60.8844 28.796ZM100.598 57.5V16.8518H111.67V57.5H100.598ZM106.134 12.3775C102.797 12.3775 100.219 9.83696 100.219 6.65184C100.219 3.4288 102.797 0.926208 106.134 0.926208C109.471 0.926208 112.049 3.4288 112.049 6.65184C112.049 9.83696 109.471 12.3775 106.134 12.3775ZM136.52 58.3721C124.234 58.3721 116.385 50.4852 116.385 37.138C116.385 23.9804 124.348 15.9797 136.52 15.9797C148.692 15.9797 156.654 23.9425 156.654 37.138C156.654 50.5231 148.805 58.3721 136.52 58.3721ZM136.52 49.9164C141.942 49.9164 145.393 45.3283 145.393 37.1759C145.393 29.0993 141.904 24.4354 136.52 24.4354C131.135 24.4354 127.609 29.0993 127.609 37.1759C127.609 45.3283 131.06 49.9164 136.52 49.9164ZM161.18 57.5V16.8518H171.873V24.0942H172.1C174.262 19.0511 178.546 16.0934 184.803 16.0934C193.827 16.0934 198.908 21.7812 198.908 31.2986V57.5H187.836V33.6116C187.836 28.3031 185.334 25.2696 180.367 25.2696C175.399 25.2696 172.252 28.9098 172.252 34.1804V57.5H161.18ZM230.356 1.83624C246.547 1.83624 256.747 12.7187 256.747 30.1611C256.747 47.5655 246.547 58.448 230.356 58.448C214.127 58.448 203.965 47.5655 203.965 30.1611C203.965 12.7187 214.127 1.83624 230.356 1.83624ZM230.356 11.3916C221.407 11.3916 215.644 18.6719 215.644 30.1611C215.644 41.6123 221.369 48.8547 230.356 48.8547C239.305 48.8547 245.03 41.6123 245.03 30.1611C245.03 18.6719 239.305 11.3916 230.356 11.3916ZM260.893 41.9157H271.928C272.458 46.4279 277.16 49.3855 283.227 49.3855C289.332 49.3855 293.503 46.4658 293.503 42.4465C293.503 38.8822 290.887 36.9105 284.289 35.4317L277.16 33.877C267.074 31.7157 262.107 26.5968 262.107 18.596C262.107 8.50983 270.828 1.83624 283.038 1.83624C295.778 1.83624 303.779 8.39607 303.968 18.2927H293.238C292.858 13.6667 288.801 10.8607 283.075 10.8607C277.426 10.8607 273.634 13.5529 273.634 17.6102C273.634 20.9849 276.288 22.8808 282.583 24.3217L289.218 25.7246C300.177 28.0756 304.954 32.7774 304.954 41.1194C304.954 51.7365 296.347 58.448 282.772 58.448C269.615 58.448 261.235 52.1915 260.893 41.9157ZM323.675 19.2406C323.675 8.88901 331.941 1.57082 343.885 1.57082C355.412 1.57082 363.337 8.2444 363.337 17.3827C363.337 24.2079 358.787 29.3269 352.758 35.3179L339.411 48.1721V48.3997H364.095V57.5H324.319V49.8026L344.947 29.9335C350.483 24.3975 352.189 21.6295 352.189 17.8377C352.189 13.7425 348.587 10.4816 343.506 10.4816C338.197 10.4816 334.292 14.1975 334.292 19.2406V19.4302H323.675V19.2406Z" fill="url(#paint0_linear_1_10468)"/>
<defs>
<linearGradient id="paint0_linear_1_10468" x1="9.09283" y1="-34.0777" x2="358.8" y2="93.3719" gradientUnits="userSpaceOnUse">
<stop stop-color="#FF6148"/>
<stop offset="0.33" stop-color="#E15C96"/>
<stop offset="0.66" stop-color="#4153E0"/>
<stop offset="1" stop-color="#7D7FEB"/>
</linearGradient>
</defs>
</svg>
