<svg viewBox="0 0 218 59" fill="none" xmlns="http://www.w3.org/2000/svg">
<path d="M0.790436 57V16.27H11.8848V57H0.790436ZM6.33762 11.7867C2.99411 11.7867 0.410492 9.24106 0.410492 6.04953C0.410492 2.82001 2.99411 0.312378 6.33762 0.312378C9.68112 0.312378 12.2647 2.82001 12.2647 6.04953C12.2647 9.24106 9.68112 11.7867 6.33762 11.7867ZM43.7779 1.22424C60.0015 1.22424 70.222 12.1286 70.222 29.606C70.222 47.0455 60.0015 57.9499 43.7779 57.9499C27.5163 57.9499 17.3338 47.0455 17.3338 29.606C17.3338 12.1286 27.5163 1.22424 43.7779 1.22424ZM43.7779 10.7988C34.8112 10.7988 29.0361 18.0938 29.0361 29.606C29.0361 41.0804 34.7732 48.3373 43.7779 48.3373C52.7446 48.3373 58.4817 41.0804 58.4817 29.606C58.4817 18.0938 52.7446 10.7988 43.7779 10.7988ZM74.3792 41.3843H85.4356C85.9675 45.9056 90.6788 48.8692 96.7579 48.8692C102.875 48.8692 107.054 45.9436 107.054 41.9162C107.054 38.3448 104.433 36.369 97.8217 34.8873L90.6788 33.3295C80.5723 31.1638 75.595 26.0346 75.595 18.0178C75.595 7.91125 84.3337 1.22424 96.5679 1.22424C109.334 1.22424 117.351 7.79727 117.541 17.7138H106.788C106.408 13.0785 102.343 10.2669 96.6059 10.2669C90.9448 10.2669 87.1453 12.9645 87.1453 17.0299C87.1453 20.4114 89.8049 22.3111 96.112 23.7549L102.761 25.1607C113.741 27.5164 118.529 32.2277 118.529 40.5864C118.529 51.2249 109.904 57.9499 96.302 57.9499C83.1179 57.9499 74.7212 51.6808 74.3792 41.3843ZM151.653 57V12.6985H151.425L137.444 22.3491V12.0146L151.615 2.1741H163.014V57H151.653ZM195.629 58.2158C182.331 58.2158 173.402 51.6428 173.402 42.1442C173.402 34.9253 178.645 29.3401 186.282 28.0863V27.8583C179.899 26.3765 175.606 21.4753 175.606 15.4341C175.606 7.07538 183.888 0.958282 195.629 0.958282C207.407 0.958282 215.614 7.03738 215.614 15.4721C215.614 21.4373 211.358 26.3385 204.975 27.8583V28.0863C212.65 29.3781 217.855 34.9633 217.855 42.1822C217.855 51.6808 208.813 58.2158 195.629 58.2158ZM195.629 49.8571C201.67 49.8571 205.849 46.2476 205.849 41.3083C205.849 36.369 201.67 32.7596 195.629 32.7596C189.588 32.7596 185.37 36.369 185.37 41.3083C185.37 46.2476 189.588 49.8571 195.629 49.8571ZM195.629 24.4008C200.682 24.4008 204.291 21.2093 204.291 16.8399C204.291 12.4326 200.682 9.24106 195.629 9.24106C190.538 9.24106 186.966 12.4706 186.966 16.8399C186.966 21.2093 190.538 24.4008 195.629 24.4008Z" fill="url(#paint0_linear_1_10383)"/>
<defs>
<linearGradient id="paint0_linear_1_10383" x1="-3.26295" y1="-11.6479" x2="220.988" y2="70.3994" gradientUnits="userSpaceOnUse">
<stop stop-color="#CF807F"/>
<stop offset="0.33" stop-color="#EA6F7D"/>
<stop offset="0.66" stop-color="#0D8EB4"/>
<stop offset="1" stop-color="#0D4E4E"/>
</linearGradient>
</defs>
</svg>
