<svg viewBox="0 0 348 59" fill="none" xmlns="http://www.w3.org/2000/svg">
<path d="M0.736649 57V16.3518H11.8087V57H0.736649ZM6.27269 11.8775C2.9359 11.8775 0.357468 9.33696 0.357468 6.15184C0.357468 2.9288 2.9359 0.426208 6.27269 0.426208C9.60948 0.426208 12.1879 2.9288 12.1879 6.15184C12.1879 9.33696 9.60948 11.8775 6.27269 11.8775ZM18.9507 2.28419H41.2086C52.4324 2.28419 60.1677 9.75406 60.1677 21.0157C60.1677 32.2395 52.167 39.7473 40.6399 39.7473H30.402V57H18.9507V2.28419ZM30.402 11.3466V30.7986H38.1373C44.6971 30.7986 48.5268 27.3101 48.5268 21.0536C48.5268 14.8351 44.735 11.3466 38.1752 11.3466H30.402ZM77.8509 49.6439C82.6665 49.6439 86.6479 46.4967 86.6479 42.0982V39.1406L78.0784 39.6714C73.9453 39.9748 71.5944 41.8328 71.5944 44.7145C71.5944 47.748 74.097 49.6439 77.8509 49.6439ZM74.2107 57.6446C66.4755 57.6446 60.5982 52.6394 60.5982 45.3212C60.5982 37.9272 66.2859 33.6425 76.41 33.0358L86.6479 32.4291V29.7369C86.6479 25.9451 83.9936 23.7458 79.8226 23.7458C75.6896 23.7458 73.0732 25.7934 72.5424 28.7889H62.4182C62.8353 20.902 69.5468 15.4797 80.3156 15.4797C90.743 15.4797 97.5304 20.8641 97.5304 29.0544V57H86.8375V50.7814H86.61C84.3349 55.1041 79.2918 57.6446 74.2107 57.6446ZM118.588 57.6446C108.426 57.6446 102.018 49.606 102.018 36.6001C102.018 23.7079 108.464 15.7072 118.664 15.7072C124.541 15.7072 129.092 18.8165 131.063 23.3287H131.291V2.28419H142.363V57H131.443V50.0231H131.253C129.281 54.4974 124.579 57.6446 118.588 57.6446ZM122.342 24.58C116.768 24.58 113.356 29.244 113.356 36.6759C113.356 44.1458 116.768 48.7339 122.342 48.7339C127.84 48.7339 131.367 44.1078 131.367 36.6759C131.367 29.2819 127.84 24.58 122.342 24.58ZM174.19 1.33624C190.381 1.33624 200.581 12.2187 200.581 29.6611C200.581 47.0655 190.381 57.948 174.19 57.948C157.961 57.948 147.799 47.0655 147.799 29.6611C147.799 12.2187 157.961 1.33624 174.19 1.33624ZM174.19 10.8916C165.241 10.8916 159.477 18.1719 159.477 29.6611C159.477 41.1123 165.203 48.3547 174.19 48.3547C183.138 48.3547 188.864 41.1123 188.864 29.6611C188.864 18.1719 183.138 10.8916 174.19 10.8916ZM204.727 41.4157H215.761C216.292 45.9279 220.994 48.8855 227.061 48.8855C233.166 48.8855 237.337 45.9658 237.337 41.9465C237.337 38.3822 234.72 36.4105 228.122 34.9317L220.994 33.377C210.908 31.2157 205.94 26.0968 205.94 18.096C205.94 8.00983 214.662 1.33624 226.871 1.33624C239.612 1.33624 247.612 7.89607 247.802 17.7927H237.071C236.692 13.1667 232.635 10.3607 226.909 10.3607C221.259 10.3607 217.468 13.0529 217.468 17.1102C217.468 20.4849 220.122 22.3808 226.416 23.8217L233.052 25.2246C244.01 27.5756 248.788 32.2774 248.788 40.6194C248.788 51.2365 240.18 57.948 226.606 57.948C213.448 57.948 205.068 51.6915 204.727 41.4157ZM281.841 57V12.7875H281.614L267.66 22.4187V12.105L281.803 2.28419H293.179V57H281.841ZM325.726 58.2134C312.455 58.2134 303.544 51.6535 303.544 42.174C303.544 34.9696 308.777 29.3956 316.398 28.1443V27.9168C310.028 26.438 305.743 21.5466 305.743 15.5176C305.743 7.17563 314.009 1.07082 325.726 1.07082C337.48 1.07082 345.671 7.13771 345.671 15.5555C345.671 21.5087 341.424 26.4001 335.054 27.9168V28.1443C342.713 29.4335 347.908 35.0075 347.908 42.2119C347.908 51.6915 338.883 58.2134 325.726 58.2134ZM325.726 49.8714C331.755 49.8714 335.926 46.2692 335.926 41.3398C335.926 36.4105 331.755 32.8083 325.726 32.8083C319.697 32.8083 315.488 36.4105 315.488 41.3398C315.488 46.2692 319.697 49.8714 325.726 49.8714ZM325.726 24.4663C330.769 24.4663 334.371 21.2812 334.371 16.9206C334.371 12.5221 330.769 9.33696 325.726 9.33696C320.645 9.33696 317.081 12.56 317.081 16.9206C317.081 21.2812 320.645 24.4663 325.726 24.4663Z" fill="url(#paint0_linear_1_10405)"/>
<defs>
<linearGradient id="paint0_linear_1_10405" x1="4.3835" y1="-32.6188" x2="343.466" y2="91.0306" gradientUnits="userSpaceOnUse">
<stop stop-color="#339AAF"/>
<stop offset="0.33" stop-color="#2E76DB"/>
<stop offset="0.66" stop-color="#1B175F"/>
<stop offset="1" stop-color="#6F57B4"/>
</linearGradient>
</defs>
</svg>
