<svg width="32" height="44" viewBox="0 0 32 44" fill="none" xmlns="http://www.w3.org/2000/svg">
<path d="M22.9872 27.2022L19.1172 23.3322C19.8182 22.4032 20.2392 21.2512 20.2392 20.0002C20.2392 16.9402 17.7502 14.4502 14.6892 14.4502C11.6292 14.4502 9.13916 16.9402 9.13916 20.0002C9.13916 23.0612 11.6292 25.5502 14.6892 25.5502C15.9402 25.5502 17.0922 25.1292 18.0212 24.4282L21.8912 28.2982C22.0422 28.4492 22.2412 28.5262 22.4392 28.5262C22.6372 28.5262 22.8352 28.4502 22.9872 28.2982C23.2902 27.9952 23.2902 27.5052 22.9872 27.2022ZM10.2392 20.0002C10.2392 17.5462 12.2362 15.5502 14.6892 15.5502C17.1432 15.5502 19.1392 17.5472 19.1392 20.0002C19.1392 22.4532 17.1432 24.4502 14.6892 24.4502C12.2352 24.4502 10.2392 22.4542 10.2392 20.0002Z" fill="white" fill-opacity="0.8"/>
</svg>
